<?xml version="1.0" encoding="UTF-8" standalone="no"?>
<!DOCTYPE svg PUBLIC "-//W3C//DTD SVG 1.1//EN"
 "http://www.w3.org/Graphics/SVG/1.1/DTD/svg11.dtd">
<!-- Generated by graphviz version 2.40.1 (20161225.0304)
 -->
<!-- Title: dependencies Pages: 1 -->
<svg width="988pt" height="211pt"
 viewBox="0.00 0.00 988.00 211.00" xmlns="http://www.w3.org/2000/svg" xmlns:xlink="http://www.w3.org/1999/xlink">
<g id="graph0" class="graph" transform="scale(1 1) rotate(0) translate(4 207)">
<title>dependencies</title>
<polygon fill="#ffffff" stroke="transparent" points="-4,4 -4,-207 984,-207 984,4 -4,4"/>
<text text-anchor="start" x="469.0091" y="-42.4" font-family="sans-serif" font-weight="bold" font-size="14.00" fill="#000000">Legend</text>
<polygon fill="#ffffb3" stroke="transparent" points="256,-10 256,-30 276,-30 276,-10 256,-10"/>
<text text-anchor="start" x="279.629" y="-15.4" font-family="sans-serif" font-size="14.00" fill="#000000"> &#160;Declarations</text>
<polygon fill="#8dd3c7" stroke="transparent" points="369,-10 369,-30 389,-30 389,-10 369,-10"/>
<text text-anchor="start" x="392.7251" y="-15.4" font-family="sans-serif" font-size="14.00" fill="#000000"> &#160;Module</text>
<polygon fill="#80b1d3" stroke="transparent" points="455,-10 455,-30 475,-30 475,-10 455,-10"/>
<text text-anchor="start" x="478.7812" y="-15.4" font-family="sans-serif" font-size="14.00" fill="#000000"> &#160;Bootstrap</text>
<polygon fill="#fdb462" stroke="transparent" points="552,-10 552,-30 572,-30 572,-10 552,-10"/>
<text text-anchor="start" x="575.6732" y="-15.4" font-family="sans-serif" font-size="14.00" fill="#000000"> &#160;Providers</text>
<polygon fill="#fb8072" stroke="transparent" points="648,-10 648,-30 668,-30 668,-10 648,-10"/>
<text text-anchor="start" x="671.7258" y="-15.4" font-family="sans-serif" font-size="14.00" fill="#000000"> &#160;Exports</text>
<g id="clust1" class="cluster">
<title>cluster_UsersModule</title>
<polygon fill="none" stroke="#000000" stroke-dasharray="1,5" points="8,-70 8,-195 972,-195 972,-70 8,-70"/>
</g>
<g id="clust2" class="cluster">
<title>cluster_UsersModule_declarations</title>
<polygon fill="none" stroke="#000000" points="314,-78 314,-130 964,-130 964,-78 314,-78"/>
</g>
<g id="clust7" class="cluster">
<title>cluster_UsersModule_imports</title>
<polygon fill="none" stroke="#000000" points="16,-78 16,-130 306,-130 306,-78 16,-78"/>
</g>
<!-- UnauthenticatedUsersComponent -->
<g id="node1" class="node">
<title>UnauthenticatedUsersComponent</title>
<polygon fill="#ffffb3" stroke="#000000" points="956.4454,-122 751.5546,-122 751.5546,-86 956.4454,-86 956.4454,-122"/>
<text text-anchor="middle" x="854" y="-99.8" font-family="Times,serif" font-size="14.00" fill="#000000">UnauthenticatedUsersComponent</text>
</g>
<!-- UsersModule -->
<g id="node5" class="node">
<title>UsersModule</title>
<polygon fill="#8dd3c7" stroke="#000000" points="488.9218,-187 485.9218,-191 464.9218,-191 461.9218,-187 397.0782,-187 397.0782,-151 488.9218,-151 488.9218,-187"/>
<text text-anchor="middle" x="443" y="-164.8" font-family="Times,serif" font-size="14.00" fill="#000000">UsersModule</text>
</g>
<!-- UnauthenticatedUsersComponent&#45;&gt;UsersModule -->
<g id="edge1" class="edge">
<title>UnauthenticatedUsersComponent&#45;&gt;UsersModule</title>
<path fill="none" stroke="#000000" d="M854,-122.2843C854,-143.3211 854,-175 854,-175 854,-175 498.9506,-175 498.9506,-175"/>
<polygon fill="#000000" stroke="#000000" points="498.9506,-171.5001 488.9506,-175 498.9505,-178.5001 498.9506,-171.5001"/>
</g>
<!-- UploadUsersComponent -->
<g id="node2" class="node">
<title>UploadUsersComponent</title>
<polygon fill="#ffffb3" stroke="#000000" points="733.4158,-122 578.5842,-122 578.5842,-86 733.4158,-86 733.4158,-122"/>
<text text-anchor="middle" x="656" y="-99.8" font-family="Times,serif" font-size="14.00" fill="#000000">UploadUsersComponent</text>
</g>
<!-- UploadUsersComponent&#45;&gt;UsersModule -->
<g id="edge2" class="edge">
<title>UploadUsersComponent&#45;&gt;UsersModule</title>
<path fill="none" stroke="#000000" d="M656,-122.0225C656,-139.3734 656,-163 656,-163 656,-163 498.9556,-163 498.9556,-163"/>
<polygon fill="#000000" stroke="#000000" points="498.9556,-159.5001 488.9556,-163 498.9556,-166.5001 498.9556,-159.5001"/>
</g>
<!-- UserComponent -->
<g id="node3" class="node">
<title>UserComponent</title>
<polygon fill="#ffffb3" stroke="#000000" points="560.7591,-122 453.2409,-122 453.2409,-86 560.7591,-86 560.7591,-122"/>
<text text-anchor="middle" x="507" y="-99.8" font-family="Times,serif" font-size="14.00" fill="#000000">UserComponent</text>
</g>
<!-- UserComponent&#45;&gt;UsersModule -->
<g id="edge3" class="edge">
<title>UserComponent&#45;&gt;UsersModule</title>
<path fill="none" stroke="#000000" d="M470.9155,-122.1061C470.9155,-122.1061 470.9155,-140.991 470.9155,-140.991"/>
<polygon fill="#000000" stroke="#000000" points="467.4156,-140.9909 470.9155,-150.991 474.4156,-140.991 467.4156,-140.9909"/>
</g>
<!-- UsersComponent -->
<g id="node4" class="node">
<title>UsersComponent</title>
<polygon fill="#ffffb3" stroke="#000000" points="435.7036,-122 322.2964,-122 322.2964,-86 435.7036,-86 435.7036,-122"/>
<text text-anchor="middle" x="379" y="-99.8" font-family="Times,serif" font-size="14.00" fill="#000000">UsersComponent</text>
</g>
<!-- UsersComponent&#45;&gt;UsersModule -->
<g id="edge4" class="edge">
<title>UsersComponent&#45;&gt;UsersModule</title>
<path fill="none" stroke="#000000" d="M416.4457,-122.1061C416.4457,-122.1061 416.4457,-140.991 416.4457,-140.991"/>
<polygon fill="#000000" stroke="#000000" points="412.9457,-140.9909 416.4457,-150.991 419.9457,-140.991 412.9457,-140.9909"/>
</g>
<!-- AntDesignModule -->
<g id="node6" class="node">
<title>AntDesignModule</title>
<polygon fill="#8dd3c7" stroke="#000000" points="298.2036,-122 295.2036,-126 274.2036,-126 271.2036,-122 177.7964,-122 177.7964,-86 298.2036,-86 298.2036,-122"/>
<text text-anchor="middle" x="238" y="-99.8" font-family="Times,serif" font-size="14.00" fill="#000000">AntDesignModule</text>
</g>
<!-- AntDesignModule&#45;&gt;UsersModule -->
<g id="edge5" class="edge">
<title>AntDesignModule&#45;&gt;UsersModule</title>
<path fill="none" stroke="#000000" d="M238,-122.0225C238,-139.3734 238,-163 238,-163 238,-163 387.2492,-163 387.2492,-163"/>
<polygon fill="#000000" stroke="#000000" points="387.2492,-166.5001 397.2492,-163 387.2491,-159.5001 387.2492,-166.5001"/>
</g>
<!-- UsersRoutingModule -->
<g id="node7" class="node">
<title>UsersRoutingModule</title>
<polygon fill="#8dd3c7" stroke="#000000" points="160.0394,-122 157.0394,-126 136.0394,-126 133.0394,-122 23.9606,-122 23.9606,-86 160.0394,-86 160.0394,-122"/>
<text text-anchor="middle" x="92" y="-99.8" font-family="Times,serif" font-size="14.00" fill="#000000">UsersRoutingModule</text>
</g>
<!-- UsersRoutingModule&#45;&gt;UsersModule -->
<g id="edge6" class="edge">
<title>UsersRoutingModule&#45;&gt;UsersModule</title>
<path fill="none" stroke="#000000" d="M92,-122.2843C92,-143.3211 92,-175 92,-175 92,-175 387.1129,-175 387.1129,-175"/>
<polygon fill="#000000" stroke="#000000" points="387.1129,-178.5001 397.1129,-175 387.1128,-171.5001 387.1129,-178.5001"/>
</g>
</g>
</svg>
