<?xml version="1.0" encoding="UTF-8" standalone="no"?>
<!DOCTYPE svg PUBLIC "-//W3C//DTD SVG 1.1//EN"
 "http://www.w3.org/Graphics/SVG/1.1/DTD/svg11.dtd">
<!-- Generated by graphviz version 2.40.1 (20161225.0304)
 -->
<!-- Title: dependencies Pages: 1 -->
<svg width="1396pt" height="211pt"
 viewBox="0.00 0.00 1396.00 211.00" xmlns="http://www.w3.org/2000/svg" xmlns:xlink="http://www.w3.org/1999/xlink">
<g id="graph0" class="graph" transform="scale(1 1) rotate(0) translate(4 207)">
<title>dependencies</title>
<polygon fill="#ffffff" stroke="transparent" points="-4,4 -4,-207 1392,-207 1392,4 -4,4"/>
<text text-anchor="start" x="673.0091" y="-42.4" font-family="sans-serif" font-weight="bold" font-size="14.00" fill="#000000">Legend</text>
<polygon fill="#ffffb3" stroke="transparent" points="460,-10 460,-30 480,-30 480,-10 460,-10"/>
<text text-anchor="start" x="483.629" y="-15.4" font-family="sans-serif" font-size="14.00" fill="#000000"> &#160;Declarations</text>
<polygon fill="#8dd3c7" stroke="transparent" points="573,-10 573,-30 593,-30 593,-10 573,-10"/>
<text text-anchor="start" x="596.7251" y="-15.4" font-family="sans-serif" font-size="14.00" fill="#000000"> &#160;Module</text>
<polygon fill="#80b1d3" stroke="transparent" points="659,-10 659,-30 679,-30 679,-10 659,-10"/>
<text text-anchor="start" x="682.7812" y="-15.4" font-family="sans-serif" font-size="14.00" fill="#000000"> &#160;Bootstrap</text>
<polygon fill="#fdb462" stroke="transparent" points="756,-10 756,-30 776,-30 776,-10 756,-10"/>
<text text-anchor="start" x="779.6732" y="-15.4" font-family="sans-serif" font-size="14.00" fill="#000000"> &#160;Providers</text>
<polygon fill="#fb8072" stroke="transparent" points="852,-10 852,-30 872,-30 872,-10 852,-10"/>
<text text-anchor="start" x="875.7258" y="-15.4" font-family="sans-serif" font-size="14.00" fill="#000000"> &#160;Exports</text>
<g id="clust1" class="cluster">
<title>cluster_StudentsModule</title>
<polygon fill="none" stroke="#000000" stroke-dasharray="1,5" points="8,-70 8,-195 1380,-195 1380,-70 8,-70"/>
</g>
<g id="clust2" class="cluster">
<title>cluster_StudentsModule_declarations</title>
<polygon fill="none" stroke="#000000" points="331,-78 331,-130 1372,-130 1372,-78 331,-78"/>
</g>
<g id="clust9" class="cluster">
<title>cluster_StudentsModule_imports</title>
<polygon fill="none" stroke="#000000" points="16,-78 16,-130 323,-130 323,-78 16,-78"/>
</g>
<!-- NewStudentComponent -->
<g id="node1" class="node">
<title>NewStudentComponent</title>
<polygon fill="#ffffb3" stroke="#000000" points="1364.0393,-122 1213.9607,-122 1213.9607,-86 1364.0393,-86 1364.0393,-122"/>
<text text-anchor="middle" x="1289" y="-99.8" font-family="Times,serif" font-size="14.00" fill="#000000">NewStudentComponent</text>
</g>
<!-- StudentsModule -->
<g id="node7" class="node">
<title>StudentsModule</title>
<polygon fill="#8dd3c7" stroke="#000000" points="745.773,-187 742.773,-191 721.773,-191 718.773,-187 638.227,-187 638.227,-151 745.773,-151 745.773,-187"/>
<text text-anchor="middle" x="692" y="-164.8" font-family="Times,serif" font-size="14.00" fill="#000000">StudentsModule</text>
</g>
<!-- NewStudentComponent&#45;&gt;StudentsModule -->
<g id="edge1" class="edge">
<title>NewStudentComponent&#45;&gt;StudentsModule</title>
<path fill="none" stroke="#000000" d="M1289,-122.2921C1289,-144.2057 1289,-178 1289,-178 1289,-178 756.0327,-178 756.0327,-178"/>
<polygon fill="#000000" stroke="#000000" points="756.0327,-174.5001 746.0327,-178 756.0327,-181.5001 756.0327,-174.5001"/>
</g>
<!-- StudentComponent -->
<g id="node2" class="node">
<title>StudentComponent</title>
<polygon fill="#ffffb3" stroke="#000000" points="1196.1108,-122 1071.8892,-122 1071.8892,-86 1196.1108,-86 1196.1108,-122"/>
<text text-anchor="middle" x="1134" y="-99.8" font-family="Times,serif" font-size="14.00" fill="#000000">StudentComponent</text>
</g>
<!-- StudentComponent&#45;&gt;StudentsModule -->
<g id="edge2" class="edge">
<title>StudentComponent&#45;&gt;StudentsModule</title>
<path fill="none" stroke="#000000" d="M1134,-122.1061C1134,-141.3391 1134,-169 1134,-169 1134,-169 756.1979,-169 756.1979,-169"/>
<polygon fill="#000000" stroke="#000000" points="756.1979,-165.5001 746.1979,-169 756.1978,-172.5001 756.1979,-165.5001"/>
</g>
<!-- StudentsAssignmentComponent -->
<g id="node3" class="node">
<title>StudentsAssignmentComponent</title>
<polygon fill="#ffffb3" stroke="#000000" points="1054.4381,-122 857.5619,-122 857.5619,-86 1054.4381,-86 1054.4381,-122"/>
<text text-anchor="middle" x="956" y="-99.8" font-family="Times,serif" font-size="14.00" fill="#000000">StudentsAssignmentComponent</text>
</g>
<!-- StudentsAssignmentComponent&#45;&gt;StudentsModule -->
<g id="edge3" class="edge">
<title>StudentsAssignmentComponent&#45;&gt;StudentsModule</title>
<path fill="none" stroke="#000000" d="M956,-122.027C956,-138.3976 956,-160 956,-160 956,-160 756.0614,-160 756.0614,-160"/>
<polygon fill="#000000" stroke="#000000" points="756.0614,-156.5001 746.0614,-160 756.0614,-163.5001 756.0614,-156.5001"/>
</g>
<!-- StudentsComponent -->
<g id="node4" class="node">
<title>StudentsComponent</title>
<polygon fill="#ffffb3" stroke="#000000" points="839.5562,-122 710.4438,-122 710.4438,-86 839.5562,-86 839.5562,-122"/>
<text text-anchor="middle" x="775" y="-99.8" font-family="Times,serif" font-size="14.00" fill="#000000">StudentsComponent</text>
</g>
<!-- StudentsComponent&#45;&gt;StudentsModule -->
<g id="edge4" class="edge">
<title>StudentsComponent&#45;&gt;StudentsModule</title>
<path fill="none" stroke="#000000" d="M728.0544,-122.1061C728.0544,-122.1061 728.0544,-140.991 728.0544,-140.991"/>
<polygon fill="#000000" stroke="#000000" points="724.5544,-140.9909 728.0544,-150.991 731.5544,-140.991 724.5544,-140.9909"/>
</g>
<!-- UpdateStudentComponent -->
<g id="node5" class="node">
<title>UpdateStudentComponent</title>
<polygon fill="#ffffb3" stroke="#000000" points="692.0378,-122 527.9622,-122 527.9622,-86 692.0378,-86 692.0378,-122"/>
<text text-anchor="middle" x="610" y="-99.8" font-family="Times,serif" font-size="14.00" fill="#000000">UpdateStudentComponent</text>
</g>
<!-- UpdateStudentComponent&#45;&gt;StudentsModule -->
<g id="edge5" class="edge">
<title>UpdateStudentComponent&#45;&gt;StudentsModule</title>
<path fill="none" stroke="#000000" d="M665.1911,-122.1061C665.1911,-122.1061 665.1911,-140.991 665.1911,-140.991"/>
<polygon fill="#000000" stroke="#000000" points="661.6912,-140.9909 665.1911,-150.991 668.6912,-140.991 661.6912,-140.9909"/>
</g>
<!-- UploadStudentsComponent -->
<g id="node6" class="node">
<title>UploadStudentsComponent</title>
<polygon fill="#ffffb3" stroke="#000000" points="509.2674,-122 338.7326,-122 338.7326,-86 509.2674,-86 509.2674,-122"/>
<text text-anchor="middle" x="424" y="-99.8" font-family="Times,serif" font-size="14.00" fill="#000000">UploadStudentsComponent</text>
</g>
<!-- UploadStudentsComponent&#45;&gt;StudentsModule -->
<g id="edge6" class="edge">
<title>UploadStudentsComponent&#45;&gt;StudentsModule</title>
<path fill="none" stroke="#000000" d="M424,-122.027C424,-138.3976 424,-160 424,-160 424,-160 628.0886,-160 628.0886,-160"/>
<polygon fill="#000000" stroke="#000000" points="628.0886,-163.5001 638.0886,-160 628.0885,-156.5001 628.0886,-163.5001"/>
</g>
<!-- AntDesignModule -->
<g id="node8" class="node">
<title>AntDesignModule</title>
<polygon fill="#8dd3c7" stroke="#000000" points="315.2036,-122 312.2036,-126 291.2036,-126 288.2036,-122 194.7964,-122 194.7964,-86 315.2036,-86 315.2036,-122"/>
<text text-anchor="middle" x="255" y="-99.8" font-family="Times,serif" font-size="14.00" fill="#000000">AntDesignModule</text>
</g>
<!-- AntDesignModule&#45;&gt;StudentsModule -->
<g id="edge7" class="edge">
<title>AntDesignModule&#45;&gt;StudentsModule</title>
<path fill="none" stroke="#000000" d="M255,-122.1061C255,-141.3391 255,-169 255,-169 255,-169 627.9769,-169 627.9769,-169"/>
<polygon fill="#000000" stroke="#000000" points="627.977,-172.5001 637.9769,-169 627.9769,-165.5001 627.977,-172.5001"/>
</g>
<!-- StudentsRoutingModule -->
<g id="node9" class="node">
<title>StudentsRoutingModule</title>
<polygon fill="#8dd3c7" stroke="#000000" points="176.3906,-122 173.3906,-126 152.3906,-126 149.3906,-122 23.6094,-122 23.6094,-86 176.3906,-86 176.3906,-122"/>
<text text-anchor="middle" x="100" y="-99.8" font-family="Times,serif" font-size="14.00" fill="#000000">StudentsRoutingModule</text>
</g>
<!-- StudentsRoutingModule&#45;&gt;StudentsModule -->
<g id="edge8" class="edge">
<title>StudentsRoutingModule&#45;&gt;StudentsModule</title>
<path fill="none" stroke="#000000" d="M100,-122.2921C100,-144.2057 100,-178 100,-178 100,-178 628.1575,-178 628.1575,-178"/>
<polygon fill="#000000" stroke="#000000" points="628.1575,-181.5001 638.1575,-178 628.1574,-174.5001 628.1575,-181.5001"/>
</g>
</g>
</svg>
