<?xml version="1.0" encoding="UTF-8" standalone="no"?>
<!DOCTYPE svg PUBLIC "-//W3C//DTD SVG 1.1//EN"
 "http://www.w3.org/Graphics/SVG/1.1/DTD/svg11.dtd">
<!-- Generated by graphviz version 2.40.1 (20161225.0304)
 -->
<!-- Title: dependencies Pages: 1 -->
<svg width="1799pt" height="211pt"
 viewBox="0.00 0.00 1799.00 211.00" xmlns="http://www.w3.org/2000/svg" xmlns:xlink="http://www.w3.org/1999/xlink">
<g id="graph0" class="graph" transform="scale(1 1) rotate(0) translate(4 207)">
<title>dependencies</title>
<polygon fill="#ffffff" stroke="transparent" points="-4,4 -4,-207 1795,-207 1795,4 -4,4"/>
<text text-anchor="start" x="874.5091" y="-42.4" font-family="sans-serif" font-weight="bold" font-size="14.00" fill="#000000">Legend</text>
<polygon fill="#ffffb3" stroke="transparent" points="661.5,-10 661.5,-30 681.5,-30 681.5,-10 661.5,-10"/>
<text text-anchor="start" x="685.129" y="-15.4" font-family="sans-serif" font-size="14.00" fill="#000000"> &#160;Declarations</text>
<polygon fill="#8dd3c7" stroke="transparent" points="774.5,-10 774.5,-30 794.5,-30 794.5,-10 774.5,-10"/>
<text text-anchor="start" x="798.2251" y="-15.4" font-family="sans-serif" font-size="14.00" fill="#000000"> &#160;Module</text>
<polygon fill="#80b1d3" stroke="transparent" points="860.5,-10 860.5,-30 880.5,-30 880.5,-10 860.5,-10"/>
<text text-anchor="start" x="884.2812" y="-15.4" font-family="sans-serif" font-size="14.00" fill="#000000"> &#160;Bootstrap</text>
<polygon fill="#fdb462" stroke="transparent" points="957.5,-10 957.5,-30 977.5,-30 977.5,-10 957.5,-10"/>
<text text-anchor="start" x="981.1732" y="-15.4" font-family="sans-serif" font-size="14.00" fill="#000000"> &#160;Providers</text>
<polygon fill="#fb8072" stroke="transparent" points="1053.5,-10 1053.5,-30 1073.5,-30 1073.5,-10 1053.5,-10"/>
<text text-anchor="start" x="1077.2258" y="-15.4" font-family="sans-serif" font-size="14.00" fill="#000000"> &#160;Exports</text>
<g id="clust1" class="cluster">
<title>cluster_SchoolYearModule</title>
<polygon fill="none" stroke="#000000" stroke-dasharray="1,5" points="8,-70 8,-195 1783,-195 1783,-70 8,-70"/>
</g>
<g id="clust2" class="cluster">
<title>cluster_SchoolYearModule_declarations</title>
<polygon fill="none" stroke="#000000" points="348,-78 348,-130 1775,-130 1775,-78 348,-78"/>
</g>
<g id="clust10" class="cluster">
<title>cluster_SchoolYearModule_imports</title>
<polygon fill="none" stroke="#000000" points="16,-78 16,-130 340,-130 340,-78 16,-78"/>
</g>
<!-- AcademicAssignmentsComponent -->
<g id="node1" class="node">
<title>AcademicAssignmentsComponent</title>
<polygon fill="#ffffb3" stroke="#000000" points="1767.4058,-122 1556.5942,-122 1556.5942,-86 1767.4058,-86 1767.4058,-122"/>
<text text-anchor="middle" x="1662" y="-99.8" font-family="Times,serif" font-size="14.00" fill="#000000">AcademicAssignmentsComponent</text>
</g>
<!-- SchoolYearModule -->
<g id="node8" class="node">
<title>SchoolYearModule</title>
<polygon fill="#8dd3c7" stroke="#000000" points="940.6345,-187 937.6345,-191 916.6345,-191 913.6345,-187 815.3655,-187 815.3655,-151 940.6345,-151 940.6345,-187"/>
<text text-anchor="middle" x="878" y="-164.8" font-family="Times,serif" font-size="14.00" fill="#000000">SchoolYearModule</text>
</g>
<!-- AcademicAssignmentsComponent&#45;&gt;SchoolYearModule -->
<g id="edge1" class="edge">
<title>AcademicAssignmentsComponent&#45;&gt;SchoolYearModule</title>
<path fill="none" stroke="#000000" d="M1662,-122.0109C1662,-144.4852 1662,-180 1662,-180 1662,-180 950.8327,-180 950.8327,-180"/>
<polygon fill="#000000" stroke="#000000" points="950.8328,-176.5001 940.8327,-180 950.8327,-183.5001 950.8328,-176.5001"/>
</g>
<!-- CounselorsComponent -->
<g id="node2" class="node">
<title>CounselorsComponent</title>
<polygon fill="#ffffb3" stroke="#000000" points="1539.3244,-122 1394.6756,-122 1394.6756,-86 1539.3244,-86 1539.3244,-122"/>
<text text-anchor="middle" x="1467" y="-99.8" font-family="Times,serif" font-size="14.00" fill="#000000">CounselorsComponent</text>
</g>
<!-- CounselorsComponent&#45;&gt;SchoolYearModule -->
<g id="edge2" class="edge">
<title>CounselorsComponent&#45;&gt;SchoolYearModule</title>
<path fill="none" stroke="#000000" d="M1467,-122.1289C1467,-142.5724 1467,-173 1467,-173 1467,-173 950.7543,-173 950.7543,-173"/>
<polygon fill="#000000" stroke="#000000" points="950.7543,-169.5001 940.7543,-173 950.7542,-176.5001 950.7543,-169.5001"/>
</g>
<!-- CycleCoordinatorsComponent -->
<g id="node3" class="node">
<title>CycleCoordinatorsComponent</title>
<polygon fill="#ffffb3" stroke="#000000" points="1376.587,-122 1189.413,-122 1189.413,-86 1376.587,-86 1376.587,-122"/>
<text text-anchor="middle" x="1283" y="-99.8" font-family="Times,serif" font-size="14.00" fill="#000000">CycleCoordinatorsComponent</text>
</g>
<!-- CycleCoordinatorsComponent&#45;&gt;SchoolYearModule -->
<g id="edge3" class="edge">
<title>CycleCoordinatorsComponent&#45;&gt;SchoolYearModule</title>
<path fill="none" stroke="#000000" d="M1283,-122.2667C1283,-140.5552 1283,-166 1283,-166 1283,-166 950.8369,-166 950.8369,-166"/>
<polygon fill="#000000" stroke="#000000" points="950.8369,-162.5001 940.8369,-166 950.8368,-169.5001 950.8369,-162.5001"/>
</g>
<!-- HeadTeachersComponent -->
<g id="node4" class="node">
<title>HeadTeachersComponent</title>
<polygon fill="#ffffb3" stroke="#000000" points="1171.8849,-122 1010.1151,-122 1010.1151,-86 1171.8849,-86 1171.8849,-122"/>
<text text-anchor="middle" x="1091" y="-99.8" font-family="Times,serif" font-size="14.00" fill="#000000">HeadTeachersComponent</text>
</g>
<!-- HeadTeachersComponent&#45;&gt;SchoolYearModule -->
<g id="edge4" class="edge">
<title>HeadTeachersComponent&#45;&gt;SchoolYearModule</title>
<path fill="none" stroke="#000000" d="M1091,-122.0091C1091,-138.0494 1091,-159 1091,-159 1091,-159 950.755,-159 950.755,-159"/>
<polygon fill="#000000" stroke="#000000" points="950.755,-155.5001 940.755,-159 950.7549,-162.5001 950.755,-155.5001"/>
</g>
<!-- NewSchoolYearSummaryComponent -->
<g id="node5" class="node">
<title>NewSchoolYearSummaryComponent</title>
<polygon fill="#ffffb3" stroke="#000000" points="992.2836,-122 763.7164,-122 763.7164,-86 992.2836,-86 992.2836,-122"/>
<text text-anchor="middle" x="878" y="-99.8" font-family="Times,serif" font-size="14.00" fill="#000000">NewSchoolYearSummaryComponent</text>
</g>
<!-- NewSchoolYearSummaryComponent&#45;&gt;SchoolYearModule -->
<g id="edge5" class="edge">
<title>NewSchoolYearSummaryComponent&#45;&gt;SchoolYearModule</title>
<path fill="none" stroke="#000000" d="M878,-122.1061C878,-122.1061 878,-140.991 878,-140.991"/>
<polygon fill="#000000" stroke="#000000" points="874.5001,-140.9909 878,-150.991 881.5001,-140.991 874.5001,-140.9909"/>
</g>
<!-- SchoolYearComponent -->
<g id="node6" class="node">
<title>SchoolYearComponent</title>
<polygon fill="#ffffb3" stroke="#000000" points="745.9172,-122 598.0828,-122 598.0828,-86 745.9172,-86 745.9172,-122"/>
<text text-anchor="middle" x="672" y="-99.8" font-family="Times,serif" font-size="14.00" fill="#000000">SchoolYearComponent</text>
</g>
<!-- SchoolYearComponent&#45;&gt;SchoolYearModule -->
<g id="edge6" class="edge">
<title>SchoolYearComponent&#45;&gt;SchoolYearModule</title>
<path fill="none" stroke="#000000" d="M672,-122.0091C672,-138.0494 672,-159 672,-159 672,-159 805.3542,-159 805.3542,-159"/>
<polygon fill="#000000" stroke="#000000" points="805.3542,-162.5001 815.3542,-159 805.3541,-155.5001 805.3542,-162.5001"/>
</g>
<!-- SchoolYearEndSummaryComponent -->
<g id="node7" class="node">
<title>SchoolYearEndSummaryComponent</title>
<polygon fill="#ffffb3" stroke="#000000" points="580.4086,-122 355.5914,-122 355.5914,-86 580.4086,-86 580.4086,-122"/>
<text text-anchor="middle" x="468" y="-99.8" font-family="Times,serif" font-size="14.00" fill="#000000">SchoolYearEndSummaryComponent</text>
</g>
<!-- SchoolYearEndSummaryComponent&#45;&gt;SchoolYearModule -->
<g id="edge7" class="edge">
<title>SchoolYearEndSummaryComponent&#45;&gt;SchoolYearModule</title>
<path fill="none" stroke="#000000" d="M468,-122.2667C468,-140.5552 468,-166 468,-166 468,-166 805.2835,-166 805.2835,-166"/>
<polygon fill="#000000" stroke="#000000" points="805.2836,-169.5001 815.2835,-166 805.2835,-162.5001 805.2836,-169.5001"/>
</g>
<!-- AntDesignModule -->
<g id="node9" class="node">
<title>AntDesignModule</title>
<polygon fill="#8dd3c7" stroke="#000000" points="332.2036,-122 329.2036,-126 308.2036,-126 305.2036,-122 211.7964,-122 211.7964,-86 332.2036,-86 332.2036,-122"/>
<text text-anchor="middle" x="272" y="-99.8" font-family="Times,serif" font-size="14.00" fill="#000000">AntDesignModule</text>
</g>
<!-- AntDesignModule&#45;&gt;SchoolYearModule -->
<g id="edge8" class="edge">
<title>AntDesignModule&#45;&gt;SchoolYearModule</title>
<path fill="none" stroke="#000000" d="M272,-122.1289C272,-142.5724 272,-173 272,-173 272,-173 805.1463,-173 805.1463,-173"/>
<polygon fill="#000000" stroke="#000000" points="805.1464,-176.5001 815.1463,-173 805.1463,-169.5001 805.1464,-176.5001"/>
</g>
<!-- SchoolYearRoutingModule -->
<g id="node10" class="node">
<title>SchoolYearRoutingModule</title>
<polygon fill="#8dd3c7" stroke="#000000" points="194.252,-122 191.252,-126 170.252,-126 167.252,-122 23.748,-122 23.748,-86 194.252,-86 194.252,-122"/>
<text text-anchor="middle" x="109" y="-99.8" font-family="Times,serif" font-size="14.00" fill="#000000">SchoolYearRoutingModule</text>
</g>
<!-- SchoolYearRoutingModule&#45;&gt;SchoolYearModule -->
<g id="edge9" class="edge">
<title>SchoolYearRoutingModule&#45;&gt;SchoolYearModule</title>
<path fill="none" stroke="#000000" d="M109,-122.0109C109,-144.4852 109,-180 109,-180 109,-180 805.0695,-180 805.0695,-180"/>
<polygon fill="#000000" stroke="#000000" points="805.0695,-183.5001 815.0695,-180 805.0695,-176.5001 805.0695,-183.5001"/>
</g>
</g>
</svg>
