<?xml version="1.0" encoding="UTF-8" standalone="no"?>
<!DOCTYPE svg PUBLIC "-//W3C//DTD SVG 1.1//EN"
 "http://www.w3.org/Graphics/SVG/1.1/DTD/svg11.dtd">
<!-- Generated by graphviz version 2.40.1 (20161225.0304)
 -->
<!-- Title: dependencies Pages: 1 -->
<svg width="782pt" height="211pt"
 viewBox="0.00 0.00 782.00 211.00" xmlns="http://www.w3.org/2000/svg" xmlns:xlink="http://www.w3.org/1999/xlink">
<g id="graph0" class="graph" transform="scale(1 1) rotate(0) translate(4 207)">
<title>dependencies</title>
<polygon fill="#ffffff" stroke="transparent" points="-4,4 -4,-207 778,-207 778,4 -4,4"/>
<text text-anchor="start" x="366.0091" y="-42.4" font-family="sans-serif" font-weight="bold" font-size="14.00" fill="#000000">Legend</text>
<polygon fill="#ffffb3" stroke="transparent" points="153,-10 153,-30 173,-30 173,-10 153,-10"/>
<text text-anchor="start" x="176.629" y="-15.4" font-family="sans-serif" font-size="14.00" fill="#000000"> &#160;Declarations</text>
<polygon fill="#8dd3c7" stroke="transparent" points="266,-10 266,-30 286,-30 286,-10 266,-10"/>
<text text-anchor="start" x="289.7251" y="-15.4" font-family="sans-serif" font-size="14.00" fill="#000000"> &#160;Module</text>
<polygon fill="#80b1d3" stroke="transparent" points="352,-10 352,-30 372,-30 372,-10 352,-10"/>
<text text-anchor="start" x="375.7812" y="-15.4" font-family="sans-serif" font-size="14.00" fill="#000000"> &#160;Bootstrap</text>
<polygon fill="#fdb462" stroke="transparent" points="449,-10 449,-30 469,-30 469,-10 449,-10"/>
<text text-anchor="start" x="472.6732" y="-15.4" font-family="sans-serif" font-size="14.00" fill="#000000"> &#160;Providers</text>
<polygon fill="#fb8072" stroke="transparent" points="545,-10 545,-30 565,-30 565,-10 545,-10"/>
<text text-anchor="start" x="568.7258" y="-15.4" font-family="sans-serif" font-size="14.00" fill="#000000"> &#160;Exports</text>
<g id="clust1" class="cluster">
<title>cluster_LoginModule</title>
<polygon fill="none" stroke="#000000" stroke-dasharray="1,5" points="8,-70 8,-195 766,-195 766,-70 8,-70"/>
</g>
<g id="clust2" class="cluster">
<title>cluster_LoginModule_declarations</title>
<polygon fill="none" stroke="#000000" points="452,-78 452,-130 758,-130 758,-78 452,-78"/>
</g>
<g id="clust5" class="cluster">
<title>cluster_LoginModule_imports</title>
<polygon fill="none" stroke="#000000" points="158,-78 158,-130 444,-130 444,-78 158,-78"/>
</g>
<g id="clust8" class="cluster">
<title>cluster_LoginModule_providers</title>
<polygon fill="none" stroke="#000000" points="16,-78 16,-130 150,-130 150,-78 16,-78"/>
</g>
<!-- LoginComponent -->
<g id="node1" class="node">
<title>LoginComponent</title>
<polygon fill="#ffffb3" stroke="#000000" points="750.2758,-122 635.7242,-122 635.7242,-86 750.2758,-86 750.2758,-122"/>
<text text-anchor="middle" x="693" y="-99.8" font-family="Times,serif" font-size="14.00" fill="#000000">LoginComponent</text>
</g>
<!-- LoginModule -->
<g id="node3" class="node">
<title>LoginModule</title>
<polygon fill="#8dd3c7" stroke="#000000" points="422.493,-187 419.493,-191 398.493,-191 395.493,-187 329.507,-187 329.507,-151 422.493,-151 422.493,-187"/>
<text text-anchor="middle" x="376" y="-164.8" font-family="Times,serif" font-size="14.00" fill="#000000">LoginModule</text>
</g>
<!-- LoginComponent&#45;&gt;LoginModule -->
<g id="edge1" class="edge">
<title>LoginComponent&#45;&gt;LoginModule</title>
<path fill="none" stroke="#000000" d="M693,-122.2843C693,-143.3211 693,-175 693,-175 693,-175 432.7744,-175 432.7744,-175"/>
<polygon fill="#000000" stroke="#000000" points="432.7745,-171.5001 422.7744,-175 432.7744,-178.5001 432.7745,-171.5001"/>
</g>
<!-- UnauthorizedComponent -->
<g id="node2" class="node">
<title>UnauthorizedComponent</title>
<polygon fill="#ffffb3" stroke="#000000" points="617.5253,-122 460.4747,-122 460.4747,-86 617.5253,-86 617.5253,-122"/>
<text text-anchor="middle" x="539" y="-99.8" font-family="Times,serif" font-size="14.00" fill="#000000">UnauthorizedComponent</text>
</g>
<!-- UnauthorizedComponent&#45;&gt;LoginModule -->
<g id="edge2" class="edge">
<title>UnauthorizedComponent&#45;&gt;LoginModule</title>
<path fill="none" stroke="#000000" d="M539,-122.0225C539,-139.3734 539,-163 539,-163 539,-163 432.7093,-163 432.7093,-163"/>
<polygon fill="#000000" stroke="#000000" points="432.7093,-159.5001 422.7093,-163 432.7092,-166.5001 432.7093,-159.5001"/>
</g>
<!-- AntDesignModule -->
<g id="node4" class="node">
<title>AntDesignModule</title>
<polygon fill="#8dd3c7" stroke="#000000" points="436.2036,-122 433.2036,-126 412.2036,-126 409.2036,-122 315.7964,-122 315.7964,-86 436.2036,-86 436.2036,-122"/>
<text text-anchor="middle" x="376" y="-99.8" font-family="Times,serif" font-size="14.00" fill="#000000">AntDesignModule</text>
</g>
<!-- AntDesignModule&#45;&gt;LoginModule -->
<g id="edge3" class="edge">
<title>AntDesignModule&#45;&gt;LoginModule</title>
<path fill="none" stroke="#000000" d="M376,-122.1061C376,-122.1061 376,-140.991 376,-140.991"/>
<polygon fill="#000000" stroke="#000000" points="372.5001,-140.9909 376,-150.991 379.5001,-140.991 372.5001,-140.9909"/>
</g>
<!-- AuthRoutingModule -->
<g id="node5" class="node">
<title>AuthRoutingModule</title>
<polygon fill="#8dd3c7" stroke="#000000" points="298.1652,-122 295.1652,-126 274.1652,-126 271.1652,-122 165.8348,-122 165.8348,-86 298.1652,-86 298.1652,-122"/>
<text text-anchor="middle" x="232" y="-99.8" font-family="Times,serif" font-size="14.00" fill="#000000">AuthRoutingModule</text>
</g>
<!-- AuthRoutingModule&#45;&gt;LoginModule -->
<g id="edge4" class="edge">
<title>AuthRoutingModule&#45;&gt;LoginModule</title>
<path fill="none" stroke="#000000" d="M232,-122.0225C232,-139.3734 232,-163 232,-163 232,-163 319.2473,-163 319.2473,-163"/>
<polygon fill="#000000" stroke="#000000" points="319.2474,-166.5001 329.2473,-163 319.2473,-159.5001 319.2474,-166.5001"/>
</g>
<!-- AuthService -->
<g id="node6" class="node">
<title>AuthService</title>
<ellipse fill="#fdb462" stroke="#000000" cx="83" cy="-104" rx="59.1083" ry="18"/>
<text text-anchor="middle" x="83" y="-99.8" font-family="Times,serif" font-size="14.00" fill="#000000">AuthService</text>
</g>
<!-- AuthService&#45;&gt;LoginModule -->
<g id="edge5" class="edge">
<title>AuthService&#45;&gt;LoginModule</title>
<path fill="none" stroke="#000000" d="M83,-122.2843C83,-143.3211 83,-175 83,-175 83,-175 319.2493,-175 319.2493,-175"/>
<polygon fill="#000000" stroke="#000000" points="319.2493,-178.5001 329.2493,-175 319.2493,-171.5001 319.2493,-178.5001"/>
</g>
</g>
</svg>
