<?xml version="1.0" encoding="UTF-8" standalone="no"?>
<!DOCTYPE svg PUBLIC "-//W3C//DTD SVG 1.1//EN"
 "http://www.w3.org/Graphics/SVG/1.1/DTD/svg11.dtd">
<!-- Generated by graphviz version 2.40.1 (20161225.0304)
 -->
<!-- Title: dependencies Pages: 1 -->
<svg width="890pt" height="211pt"
 viewBox="0.00 0.00 890.00 211.00" xmlns="http://www.w3.org/2000/svg" xmlns:xlink="http://www.w3.org/1999/xlink">
<g id="graph0" class="graph" transform="scale(1 1) rotate(0) translate(4 207)">
<title>dependencies</title>
<polygon fill="#ffffff" stroke="transparent" points="-4,4 -4,-207 886,-207 886,4 -4,4"/>
<text text-anchor="start" x="420.0091" y="-42.4" font-family="sans-serif" font-weight="bold" font-size="14.00" fill="#000000">Legend</text>
<polygon fill="#ffffb3" stroke="transparent" points="207,-10 207,-30 227,-30 227,-10 207,-10"/>
<text text-anchor="start" x="230.629" y="-15.4" font-family="sans-serif" font-size="14.00" fill="#000000"> &#160;Declarations</text>
<polygon fill="#8dd3c7" stroke="transparent" points="320,-10 320,-30 340,-30 340,-10 320,-10"/>
<text text-anchor="start" x="343.7251" y="-15.4" font-family="sans-serif" font-size="14.00" fill="#000000"> &#160;Module</text>
<polygon fill="#80b1d3" stroke="transparent" points="406,-10 406,-30 426,-30 426,-10 406,-10"/>
<text text-anchor="start" x="429.7812" y="-15.4" font-family="sans-serif" font-size="14.00" fill="#000000"> &#160;Bootstrap</text>
<polygon fill="#fdb462" stroke="transparent" points="503,-10 503,-30 523,-30 523,-10 503,-10"/>
<text text-anchor="start" x="526.6732" y="-15.4" font-family="sans-serif" font-size="14.00" fill="#000000"> &#160;Providers</text>
<polygon fill="#fb8072" stroke="transparent" points="599,-10 599,-30 619,-30 619,-10 599,-10"/>
<text text-anchor="start" x="622.7258" y="-15.4" font-family="sans-serif" font-size="14.00" fill="#000000"> &#160;Exports</text>
<g id="clust1" class="cluster">
<title>cluster_ResetPasswordModule</title>
<polygon fill="none" stroke="#000000" stroke-dasharray="1,5" points="8,-70 8,-195 874,-195 874,-70 8,-70"/>
</g>
<g id="clust2" class="cluster">
<title>cluster_ResetPasswordModule_declarations</title>
<polygon fill="none" stroke="#000000" points="336,-78 336,-130 866,-130 866,-78 336,-78"/>
</g>
<g id="clust6" class="cluster">
<title>cluster_ResetPasswordModule_imports</title>
<polygon fill="none" stroke="#000000" points="16,-78 16,-130 328,-130 328,-78 16,-78"/>
</g>
<!-- ResetPasswordComponent -->
<g id="node1" class="node">
<title>ResetPasswordComponent</title>
<polygon fill="#ffffb3" stroke="#000000" points="858.087,-122 691.913,-122 691.913,-86 858.087,-86 858.087,-122"/>
<text text-anchor="middle" x="775" y="-99.8" font-family="Times,serif" font-size="14.00" fill="#000000">ResetPasswordComponent</text>
</g>
<!-- ResetPasswordModule -->
<g id="node4" class="node">
<title>ResetPasswordModule</title>
<polygon fill="#8dd3c7" stroke="#000000" points="504.3047,-187 501.3047,-191 480.3047,-191 477.3047,-187 359.6953,-187 359.6953,-151 504.3047,-151 504.3047,-187"/>
<text text-anchor="middle" x="432" y="-164.8" font-family="Times,serif" font-size="14.00" fill="#000000">ResetPasswordModule</text>
</g>
<!-- ResetPasswordComponent&#45;&gt;ResetPasswordModule -->
<g id="edge1" class="edge">
<title>ResetPasswordComponent&#45;&gt;ResetPasswordModule</title>
<path fill="none" stroke="#000000" d="M775,-122.2843C775,-143.3211 775,-175 775,-175 775,-175 514.3224,-175 514.3224,-175"/>
<polygon fill="#000000" stroke="#000000" points="514.3224,-171.5001 504.3224,-175 514.3223,-178.5001 514.3224,-171.5001"/>
</g>
<!-- ResetPswComponent -->
<g id="node2" class="node">
<title>ResetPswComponent</title>
<polygon fill="#ffffb3" stroke="#000000" points="673.7674,-122 538.2326,-122 538.2326,-86 673.7674,-86 673.7674,-122"/>
<text text-anchor="middle" x="606" y="-99.8" font-family="Times,serif" font-size="14.00" fill="#000000">ResetPswComponent</text>
</g>
<!-- ResetPswComponent&#45;&gt;ResetPasswordModule -->
<g id="edge2" class="edge">
<title>ResetPswComponent&#45;&gt;ResetPasswordModule</title>
<path fill="none" stroke="#000000" d="M606,-122.0225C606,-139.3734 606,-163 606,-163 606,-163 514.28,-163 514.28,-163"/>
<polygon fill="#000000" stroke="#000000" points="514.2801,-159.5001 504.28,-163 514.28,-166.5001 514.2801,-159.5001"/>
</g>
<!-- UpdatePasswordComponent -->
<g id="node3" class="node">
<title>UpdatePasswordComponent</title>
<polygon fill="#ffffb3" stroke="#000000" points="519.9129,-122 344.0871,-122 344.0871,-86 519.9129,-86 519.9129,-122"/>
<text text-anchor="middle" x="432" y="-99.8" font-family="Times,serif" font-size="14.00" fill="#000000">UpdatePasswordComponent</text>
</g>
<!-- UpdatePasswordComponent&#45;&gt;ResetPasswordModule -->
<g id="edge3" class="edge">
<title>UpdatePasswordComponent&#45;&gt;ResetPasswordModule</title>
<path fill="none" stroke="#000000" d="M432,-122.1061C432,-122.1061 432,-140.991 432,-140.991"/>
<polygon fill="#000000" stroke="#000000" points="428.5001,-140.9909 432,-150.991 435.5001,-140.991 428.5001,-140.9909"/>
</g>
<!-- AntDesignModule -->
<g id="node5" class="node">
<title>AntDesignModule</title>
<polygon fill="#8dd3c7" stroke="#000000" points="320.2036,-122 317.2036,-126 296.2036,-126 293.2036,-122 199.7964,-122 199.7964,-86 320.2036,-86 320.2036,-122"/>
<text text-anchor="middle" x="260" y="-99.8" font-family="Times,serif" font-size="14.00" fill="#000000">AntDesignModule</text>
</g>
<!-- AntDesignModule&#45;&gt;ResetPasswordModule -->
<g id="edge4" class="edge">
<title>AntDesignModule&#45;&gt;ResetPasswordModule</title>
<path fill="none" stroke="#000000" d="M260,-122.0225C260,-139.3734 260,-163 260,-163 260,-163 349.555,-163 349.555,-163"/>
<polygon fill="#000000" stroke="#000000" points="349.5551,-166.5001 359.555,-163 349.555,-159.5001 349.5551,-166.5001"/>
</g>
<!-- PasswordRoutingModule -->
<g id="node6" class="node">
<title>PasswordRoutingModule</title>
<polygon fill="#8dd3c7" stroke="#000000" points="182.3215,-122 179.3215,-126 158.3215,-126 155.3215,-122 23.6785,-122 23.6785,-86 182.3215,-86 182.3215,-122"/>
<text text-anchor="middle" x="103" y="-99.8" font-family="Times,serif" font-size="14.00" fill="#000000">PasswordRoutingModule</text>
</g>
<!-- PasswordRoutingModule&#45;&gt;ResetPasswordModule -->
<g id="edge5" class="edge">
<title>PasswordRoutingModule&#45;&gt;ResetPasswordModule</title>
<path fill="none" stroke="#000000" d="M103,-122.2843C103,-143.3211 103,-175 103,-175 103,-175 349.7996,-175 349.7996,-175"/>
<polygon fill="#000000" stroke="#000000" points="349.7996,-178.5001 359.7996,-175 349.7995,-171.5001 349.7996,-178.5001"/>
</g>
</g>
</svg>
