<?xml version="1.0" encoding="UTF-8" standalone="no"?>
<!DOCTYPE svg PUBLIC "-//W3C//DTD SVG 1.1//EN"
 "http://www.w3.org/Graphics/SVG/1.1/DTD/svg11.dtd">
<!-- Generated by graphviz version 2.40.1 (20161225.0304)
 -->
<!-- Title: dependencies Pages: 1 -->
<svg width="586pt" height="211pt"
 viewBox="0.00 0.00 586.00 211.00" xmlns="http://www.w3.org/2000/svg" xmlns:xlink="http://www.w3.org/1999/xlink">
<g id="graph0" class="graph" transform="scale(1 1) rotate(0) translate(4 207)">
<title>dependencies</title>
<polygon fill="#ffffff" stroke="transparent" points="-4,4 -4,-207 582,-207 582,4 -4,4"/>
<text text-anchor="start" x="268.0091" y="-42.4" font-family="sans-serif" font-weight="bold" font-size="14.00" fill="#000000">Legend</text>
<polygon fill="#ffffb3" stroke="transparent" points="55,-10 55,-30 75,-30 75,-10 55,-10"/>
<text text-anchor="start" x="78.629" y="-15.4" font-family="sans-serif" font-size="14.00" fill="#000000"> &#160;Declarations</text>
<polygon fill="#8dd3c7" stroke="transparent" points="168,-10 168,-30 188,-30 188,-10 168,-10"/>
<text text-anchor="start" x="191.7251" y="-15.4" font-family="sans-serif" font-size="14.00" fill="#000000"> &#160;Module</text>
<polygon fill="#80b1d3" stroke="transparent" points="254,-10 254,-30 274,-30 274,-10 254,-10"/>
<text text-anchor="start" x="277.7812" y="-15.4" font-family="sans-serif" font-size="14.00" fill="#000000"> &#160;Bootstrap</text>
<polygon fill="#fdb462" stroke="transparent" points="351,-10 351,-30 371,-30 371,-10 351,-10"/>
<text text-anchor="start" x="374.6732" y="-15.4" font-family="sans-serif" font-size="14.00" fill="#000000"> &#160;Providers</text>
<polygon fill="#fb8072" stroke="transparent" points="447,-10 447,-30 467,-30 467,-10 447,-10"/>
<text text-anchor="start" x="470.7258" y="-15.4" font-family="sans-serif" font-size="14.00" fill="#000000"> &#160;Exports</text>
<g id="clust1" class="cluster">
<title>cluster_SecurityPoliciesModule</title>
<polygon fill="none" stroke="#000000" stroke-dasharray="1,5" points="8,-70 8,-195 570,-195 570,-70 8,-70"/>
</g>
<g id="clust2" class="cluster">
<title>cluster_SecurityPoliciesModule_declarations</title>
<polygon fill="none" stroke="#000000" points="374,-78 374,-130 562,-130 562,-78 374,-78"/>
</g>
<g id="clust4" class="cluster">
<title>cluster_SecurityPoliciesModule_imports</title>
<polygon fill="none" stroke="#000000" points="16,-78 16,-130 366,-130 366,-78 16,-78"/>
</g>
<!-- SecurityPoliciesComponent -->
<g id="node1" class="node">
<title>SecurityPoliciesComponent</title>
<polygon fill="#ffffb3" stroke="#000000" points="554.3145,-122 381.6855,-122 381.6855,-86 554.3145,-86 554.3145,-122"/>
<text text-anchor="middle" x="468" y="-99.8" font-family="Times,serif" font-size="14.00" fill="#000000">SecurityPoliciesComponent</text>
</g>
<!-- SecurityPoliciesModule -->
<g id="node2" class="node">
<title>SecurityPoliciesModule</title>
<polygon fill="#8dd3c7" stroke="#000000" points="373.0323,-187 370.0323,-191 349.0323,-191 346.0323,-187 222.9677,-187 222.9677,-151 373.0323,-151 373.0323,-187"/>
<text text-anchor="middle" x="298" y="-164.8" font-family="Times,serif" font-size="14.00" fill="#000000">SecurityPoliciesModule</text>
</g>
<!-- SecurityPoliciesComponent&#45;&gt;SecurityPoliciesModule -->
<g id="edge1" class="edge">
<title>SecurityPoliciesComponent&#45;&gt;SecurityPoliciesModule</title>
<path fill="none" stroke="#000000" d="M381.6707,-104C372.0785,-104 365.6838,-104 365.6838,-104 365.6838,-104 365.6838,-140.8939 365.6838,-140.8939"/>
<polygon fill="#000000" stroke="#000000" points="362.1838,-140.8938 365.6838,-150.8939 369.1838,-140.8939 362.1838,-140.8938"/>
</g>
<!-- AntDesignModule -->
<g id="node3" class="node">
<title>AntDesignModule</title>
<polygon fill="#8dd3c7" stroke="#000000" points="358.2036,-122 355.2036,-126 334.2036,-126 331.2036,-122 237.7964,-122 237.7964,-86 358.2036,-86 358.2036,-122"/>
<text text-anchor="middle" x="298" y="-99.8" font-family="Times,serif" font-size="14.00" fill="#000000">AntDesignModule</text>
</g>
<!-- AntDesignModule&#45;&gt;SecurityPoliciesModule -->
<g id="edge2" class="edge">
<title>AntDesignModule&#45;&gt;SecurityPoliciesModule</title>
<path fill="none" stroke="#000000" d="M298,-122.1061C298,-122.1061 298,-140.991 298,-140.991"/>
<polygon fill="#000000" stroke="#000000" points="294.5001,-140.9909 298,-150.991 301.5001,-140.991 294.5001,-140.9909"/>
</g>
<!-- SecurityPoliciesRoutingModule -->
<g id="node4" class="node">
<title>SecurityPoliciesRoutingModule</title>
<polygon fill="#8dd3c7" stroke="#000000" points="219.6497,-122 216.6497,-126 195.6497,-126 192.6497,-122 24.3503,-122 24.3503,-86 219.6497,-86 219.6497,-122"/>
<text text-anchor="middle" x="122" y="-99.8" font-family="Times,serif" font-size="14.00" fill="#000000">SecurityPoliciesRoutingModule</text>
</g>
<!-- SecurityPoliciesRoutingModule&#45;&gt;SecurityPoliciesModule -->
<g id="edge3" class="edge">
<title>SecurityPoliciesRoutingModule&#45;&gt;SecurityPoliciesModule</title>
<path fill="none" stroke="#000000" d="M219.9304,-104C226.3479,-104 230.3163,-104 230.3163,-104 230.3163,-104 230.3163,-140.8939 230.3163,-140.8939"/>
<polygon fill="#000000" stroke="#000000" points="226.8163,-140.8938 230.3163,-150.8939 233.8163,-140.8939 226.8163,-140.8938"/>
</g>
</g>
</svg>
