<?xml version="1.0" encoding="UTF-8" standalone="no"?>
<!DOCTYPE svg PUBLIC "-//W3C//DTD SVG 1.1//EN"
 "http://www.w3.org/Graphics/SVG/1.1/DTD/svg11.dtd">
<!-- Generated by graphviz version 2.40.1 (20161225.0304)
 -->
<!-- Title: dependencies Pages: 1 -->
<svg width="593pt" height="211pt"
 viewBox="0.00 0.00 593.00 211.00" xmlns="http://www.w3.org/2000/svg" xmlns:xlink="http://www.w3.org/1999/xlink">
<g id="graph0" class="graph" transform="scale(1 1) rotate(0) translate(4 207)">
<title>dependencies</title>
<polygon fill="#ffffff" stroke="transparent" points="-4,4 -4,-207 589,-207 589,4 -4,4"/>
<text text-anchor="start" x="271.5091" y="-42.4" font-family="sans-serif" font-weight="bold" font-size="14.00" fill="#000000">Legend</text>
<polygon fill="#ffffb3" stroke="transparent" points="58.5,-10 58.5,-30 78.5,-30 78.5,-10 58.5,-10"/>
<text text-anchor="start" x="82.129" y="-15.4" font-family="sans-serif" font-size="14.00" fill="#000000"> &#160;Declarations</text>
<polygon fill="#8dd3c7" stroke="transparent" points="171.5,-10 171.5,-30 191.5,-30 191.5,-10 171.5,-10"/>
<text text-anchor="start" x="195.2251" y="-15.4" font-family="sans-serif" font-size="14.00" fill="#000000"> &#160;Module</text>
<polygon fill="#80b1d3" stroke="transparent" points="257.5,-10 257.5,-30 277.5,-30 277.5,-10 257.5,-10"/>
<text text-anchor="start" x="281.2812" y="-15.4" font-family="sans-serif" font-size="14.00" fill="#000000"> &#160;Bootstrap</text>
<polygon fill="#fdb462" stroke="transparent" points="354.5,-10 354.5,-30 374.5,-30 374.5,-10 354.5,-10"/>
<text text-anchor="start" x="378.1732" y="-15.4" font-family="sans-serif" font-size="14.00" fill="#000000"> &#160;Providers</text>
<polygon fill="#fb8072" stroke="transparent" points="450.5,-10 450.5,-30 470.5,-30 470.5,-10 450.5,-10"/>
<text text-anchor="start" x="474.2258" y="-15.4" font-family="sans-serif" font-size="14.00" fill="#000000"> &#160;Exports</text>
<g id="clust1" class="cluster">
<title>cluster_RolesModule</title>
<polygon fill="none" stroke="#000000" stroke-dasharray="1,5" points="8,-70 8,-195 577,-195 577,-70 8,-70"/>
</g>
<g id="clust2" class="cluster">
<title>cluster_RolesModule_declarations</title>
<polygon fill="none" stroke="#000000" points="314,-78 314,-130 569,-130 569,-78 314,-78"/>
</g>
<g id="clust5" class="cluster">
<title>cluster_RolesModule_imports</title>
<polygon fill="none" stroke="#000000" points="16,-78 16,-130 306,-130 306,-78 16,-78"/>
</g>
<!-- RoleComponent -->
<g id="node1" class="node">
<title>RoleComponent</title>
<polygon fill="#ffffb3" stroke="#000000" points="560.7744,-122 453.2256,-122 453.2256,-86 560.7744,-86 560.7744,-122"/>
<text text-anchor="middle" x="507" y="-99.8" font-family="Times,serif" font-size="14.00" fill="#000000">RoleComponent</text>
</g>
<!-- RolesModule -->
<g id="node3" class="node">
<title>RolesModule</title>
<polygon fill="#8dd3c7" stroke="#000000" points="353.9372,-187 350.9372,-191 329.9372,-191 326.9372,-187 262.0628,-187 262.0628,-151 353.9372,-151 353.9372,-187"/>
<text text-anchor="middle" x="308" y="-164.8" font-family="Times,serif" font-size="14.00" fill="#000000">RolesModule</text>
</g>
<!-- RoleComponent&#45;&gt;RolesModule -->
<g id="edge1" class="edge">
<title>RoleComponent&#45;&gt;RolesModule</title>
<path fill="none" stroke="#000000" d="M507,-122.1061C507,-141.3391 507,-169 507,-169 507,-169 364.1548,-169 364.1548,-169"/>
<polygon fill="#000000" stroke="#000000" points="364.1548,-165.5001 354.1548,-169 364.1548,-172.5001 364.1548,-165.5001"/>
</g>
<!-- RolesComponent -->
<g id="node2" class="node">
<title>RolesComponent</title>
<polygon fill="#ffffb3" stroke="#000000" points="435.719,-122 322.281,-122 322.281,-86 435.719,-86 435.719,-122"/>
<text text-anchor="middle" x="379" y="-99.8" font-family="Times,serif" font-size="14.00" fill="#000000">RolesComponent</text>
</g>
<!-- RolesComponent&#45;&gt;RolesModule -->
<g id="edge2" class="edge">
<title>RolesComponent&#45;&gt;RolesModule</title>
<path fill="none" stroke="#000000" d="M338.0544,-122.1061C338.0544,-122.1061 338.0544,-140.991 338.0544,-140.991"/>
<polygon fill="#000000" stroke="#000000" points="334.5544,-140.9909 338.0544,-150.991 341.5544,-140.991 334.5544,-140.9909"/>
</g>
<!-- AntDesignModule -->
<g id="node4" class="node">
<title>AntDesignModule</title>
<polygon fill="#8dd3c7" stroke="#000000" points="298.2036,-122 295.2036,-126 274.2036,-126 271.2036,-122 177.7964,-122 177.7964,-86 298.2036,-86 298.2036,-122"/>
<text text-anchor="middle" x="238" y="-99.8" font-family="Times,serif" font-size="14.00" fill="#000000">AntDesignModule</text>
</g>
<!-- AntDesignModule&#45;&gt;RolesModule -->
<g id="edge3" class="edge">
<title>AntDesignModule&#45;&gt;RolesModule</title>
<path fill="none" stroke="#000000" d="M280.1918,-122.1061C280.1918,-122.1061 280.1918,-140.991 280.1918,-140.991"/>
<polygon fill="#000000" stroke="#000000" points="276.6919,-140.9909 280.1918,-150.991 283.6919,-140.991 276.6919,-140.9909"/>
</g>
<!-- RolesRoutingModule -->
<g id="node5" class="node">
<title>RolesRoutingModule</title>
<polygon fill="#8dd3c7" stroke="#000000" points="160.0547,-122 157.0547,-126 136.0547,-126 133.0547,-122 23.9453,-122 23.9453,-86 160.0547,-86 160.0547,-122"/>
<text text-anchor="middle" x="92" y="-99.8" font-family="Times,serif" font-size="14.00" fill="#000000">RolesRoutingModule</text>
</g>
<!-- RolesRoutingModule&#45;&gt;RolesModule -->
<g id="edge4" class="edge">
<title>RolesRoutingModule&#45;&gt;RolesModule</title>
<path fill="none" stroke="#000000" d="M92,-122.1061C92,-141.3391 92,-169 92,-169 92,-169 252.192,-169 252.192,-169"/>
<polygon fill="#000000" stroke="#000000" points="252.192,-172.5001 262.192,-169 252.1919,-165.5001 252.192,-172.5001"/>
</g>
</g>
</svg>
