<?xml version="1.0" encoding="UTF-8" standalone="no"?>
<!DOCTYPE svg PUBLIC "-//W3C//DTD SVG 1.1//EN"
 "http://www.w3.org/Graphics/SVG/1.1/DTD/svg11.dtd">
<!-- Generated by graphviz version 2.40.1 (20161225.0304)
 -->
<!-- Title: dependencies Pages: 1 -->
<svg width="1261pt" height="211pt"
 viewBox="0.00 0.00 1261.00 211.00" xmlns="http://www.w3.org/2000/svg" xmlns:xlink="http://www.w3.org/1999/xlink">
<g id="graph0" class="graph" transform="scale(1 1) rotate(0) translate(4 207)">
<title>dependencies</title>
<polygon fill="#ffffff" stroke="transparent" points="-4,4 -4,-207 1257,-207 1257,4 -4,4"/>
<text text-anchor="start" x="605.5091" y="-42.4" font-family="sans-serif" font-weight="bold" font-size="14.00" fill="#000000">Legend</text>
<polygon fill="#ffffb3" stroke="transparent" points="392.5,-10 392.5,-30 412.5,-30 412.5,-10 392.5,-10"/>
<text text-anchor="start" x="416.129" y="-15.4" font-family="sans-serif" font-size="14.00" fill="#000000"> &#160;Declarations</text>
<polygon fill="#8dd3c7" stroke="transparent" points="505.5,-10 505.5,-30 525.5,-30 525.5,-10 505.5,-10"/>
<text text-anchor="start" x="529.2251" y="-15.4" font-family="sans-serif" font-size="14.00" fill="#000000"> &#160;Module</text>
<polygon fill="#80b1d3" stroke="transparent" points="591.5,-10 591.5,-30 611.5,-30 611.5,-10 591.5,-10"/>
<text text-anchor="start" x="615.2812" y="-15.4" font-family="sans-serif" font-size="14.00" fill="#000000"> &#160;Bootstrap</text>
<polygon fill="#fdb462" stroke="transparent" points="688.5,-10 688.5,-30 708.5,-30 708.5,-10 688.5,-10"/>
<text text-anchor="start" x="712.1732" y="-15.4" font-family="sans-serif" font-size="14.00" fill="#000000"> &#160;Providers</text>
<polygon fill="#fb8072" stroke="transparent" points="784.5,-10 784.5,-30 804.5,-30 804.5,-10 784.5,-10"/>
<text text-anchor="start" x="808.2258" y="-15.4" font-family="sans-serif" font-size="14.00" fill="#000000"> &#160;Exports</text>
<g id="clust1" class="cluster">
<title>cluster_AcademicCatalogsModule</title>
<polygon fill="none" stroke="#000000" stroke-dasharray="1,5" points="8,-70 8,-195 1245,-195 1245,-70 8,-70"/>
</g>
<g id="clust2" class="cluster">
<title>cluster_AcademicCatalogsModule_declarations</title>
<polygon fill="none" stroke="#000000" points="388,-78 388,-130 1237,-130 1237,-78 388,-78"/>
</g>
<g id="clust8" class="cluster">
<title>cluster_AcademicCatalogsModule_imports</title>
<polygon fill="none" stroke="#000000" points="16,-78 16,-130 380,-130 380,-78 16,-78"/>
</g>
<!-- ShowCyclesComponent -->
<g id="node1" class="node">
<title>ShowCyclesComponent</title>
<polygon fill="#ffffb3" stroke="#000000" points="1228.8229,-122 1077.1771,-122 1077.1771,-86 1228.8229,-86 1228.8229,-122"/>
<text text-anchor="middle" x="1153" y="-99.8" font-family="Times,serif" font-size="14.00" fill="#000000">ShowCyclesComponent</text>
</g>
<!-- AcademicCatalogsModule -->
<g id="node6" class="node">
<title>AcademicCatalogsModule</title>
<polygon fill="#8dd3c7" stroke="#000000" points="717.7879,-187 714.7879,-191 693.7879,-191 690.7879,-187 552.2121,-187 552.2121,-151 717.7879,-151 717.7879,-187"/>
<text text-anchor="middle" x="635" y="-164.8" font-family="Times,serif" font-size="14.00" fill="#000000">AcademicCatalogsModule</text>
</g>
<!-- ShowCyclesComponent&#45;&gt;AcademicCatalogsModule -->
<g id="edge1" class="edge">
<title>ShowCyclesComponent&#45;&gt;AcademicCatalogsModule</title>
<path fill="none" stroke="#000000" d="M1153,-122.2921C1153,-144.2057 1153,-178 1153,-178 1153,-178 727.6514,-178 727.6514,-178"/>
<polygon fill="#000000" stroke="#000000" points="727.6515,-174.5001 717.6514,-178 727.6514,-181.5001 727.6515,-174.5001"/>
</g>
<!-- ShowGradesComponent -->
<g id="node2" class="node">
<title>ShowGradesComponent</title>
<polygon fill="#ffffb3" stroke="#000000" points="1059.3627,-122 906.6373,-122 906.6373,-86 1059.3627,-86 1059.3627,-122"/>
<text text-anchor="middle" x="983" y="-99.8" font-family="Times,serif" font-size="14.00" fill="#000000">ShowGradesComponent</text>
</g>
<!-- ShowGradesComponent&#45;&gt;AcademicCatalogsModule -->
<g id="edge2" class="edge">
<title>ShowGradesComponent&#45;&gt;AcademicCatalogsModule</title>
<path fill="none" stroke="#000000" d="M983,-122.1061C983,-141.3391 983,-169 983,-169 983,-169 727.9125,-169 727.9125,-169"/>
<polygon fill="#000000" stroke="#000000" points="727.9126,-165.5001 717.9125,-169 727.9125,-172.5001 727.9126,-165.5001"/>
</g>
<!-- ShowPeriodsComponent -->
<g id="node3" class="node">
<title>ShowPeriodsComponent</title>
<polygon fill="#ffffb3" stroke="#000000" points="888.7147,-122 733.2853,-122 733.2853,-86 888.7147,-86 888.7147,-122"/>
<text text-anchor="middle" x="811" y="-99.8" font-family="Times,serif" font-size="14.00" fill="#000000">ShowPeriodsComponent</text>
</g>
<!-- ShowPeriodsComponent&#45;&gt;AcademicCatalogsModule -->
<g id="edge3" class="edge">
<title>ShowPeriodsComponent&#45;&gt;AcademicCatalogsModule</title>
<path fill="none" stroke="#000000" d="M811,-122.027C811,-138.3976 811,-160 811,-160 811,-160 727.8464,-160 727.8464,-160"/>
<polygon fill="#000000" stroke="#000000" points="727.8464,-156.5001 717.8464,-160 727.8463,-163.5001 727.8464,-156.5001"/>
</g>
<!-- ShowSectionsComponent -->
<g id="node4" class="node">
<title>ShowSectionsComponent</title>
<polygon fill="#ffffb3" stroke="#000000" points="715.1596,-122 554.8404,-122 554.8404,-86 715.1596,-86 715.1596,-122"/>
<text text-anchor="middle" x="635" y="-99.8" font-family="Times,serif" font-size="14.00" fill="#000000">ShowSectionsComponent</text>
</g>
<!-- ShowSectionsComponent&#45;&gt;AcademicCatalogsModule -->
<g id="edge4" class="edge">
<title>ShowSectionsComponent&#45;&gt;AcademicCatalogsModule</title>
<path fill="none" stroke="#000000" d="M635,-122.1061C635,-122.1061 635,-140.991 635,-140.991"/>
<polygon fill="#000000" stroke="#000000" points="631.5001,-140.9909 635,-150.991 638.5001,-140.991 631.5001,-140.9909"/>
</g>
<!-- ShowShiftComponent -->
<g id="node5" class="node">
<title>ShowShiftComponent</title>
<polygon fill="#ffffb3" stroke="#000000" points="536.4467,-122 395.5533,-122 395.5533,-86 536.4467,-86 536.4467,-122"/>
<text text-anchor="middle" x="466" y="-99.8" font-family="Times,serif" font-size="14.00" fill="#000000">ShowShiftComponent</text>
</g>
<!-- ShowShiftComponent&#45;&gt;AcademicCatalogsModule -->
<g id="edge5" class="edge">
<title>ShowShiftComponent&#45;&gt;AcademicCatalogsModule</title>
<path fill="none" stroke="#000000" d="M466,-122.027C466,-138.3976 466,-160 466,-160 466,-160 541.9853,-160 541.9853,-160"/>
<polygon fill="#000000" stroke="#000000" points="541.9853,-163.5001 551.9853,-160 541.9852,-156.5001 541.9853,-163.5001"/>
</g>
<!-- AcademicCatalogsRoutingModule -->
<g id="node7" class="node">
<title>AcademicCatalogsRoutingModule</title>
<polygon fill="#8dd3c7" stroke="#000000" points="372.4058,-122 369.4058,-126 348.4058,-126 345.4058,-122 161.5942,-122 161.5942,-86 372.4058,-86 372.4058,-122"/>
<text text-anchor="middle" x="267" y="-99.8" font-family="Times,serif" font-size="14.00" fill="#000000">AcademicCatalogsRoutingModule</text>
</g>
<!-- AcademicCatalogsRoutingModule&#45;&gt;AcademicCatalogsModule -->
<g id="edge6" class="edge">
<title>AcademicCatalogsRoutingModule&#45;&gt;AcademicCatalogsModule</title>
<path fill="none" stroke="#000000" d="M267,-122.1061C267,-141.3391 267,-169 267,-169 267,-169 541.9548,-169 541.9548,-169"/>
<polygon fill="#000000" stroke="#000000" points="541.9548,-172.5001 551.9548,-169 541.9547,-165.5001 541.9548,-172.5001"/>
</g>
<!-- AntDesignModule -->
<g id="node8" class="node">
<title>AntDesignModule</title>
<polygon fill="#8dd3c7" stroke="#000000" points="144.2036,-122 141.2036,-126 120.2036,-126 117.2036,-122 23.7964,-122 23.7964,-86 144.2036,-86 144.2036,-122"/>
<text text-anchor="middle" x="84" y="-99.8" font-family="Times,serif" font-size="14.00" fill="#000000">AntDesignModule</text>
</g>
<!-- AntDesignModule&#45;&gt;AcademicCatalogsModule -->
<g id="edge7" class="edge">
<title>AntDesignModule&#45;&gt;AcademicCatalogsModule</title>
<path fill="none" stroke="#000000" d="M84,-122.2921C84,-144.2057 84,-178 84,-178 84,-178 542.2116,-178 542.2116,-178"/>
<polygon fill="#000000" stroke="#000000" points="542.2117,-181.5001 552.2116,-178 542.2116,-174.5001 542.2117,-181.5001"/>
</g>
</g>
</svg>
