<?xml version="1.0" encoding="UTF-8" standalone="no"?>
<!DOCTYPE svg PUBLIC "-//W3C//DTD SVG 1.1//EN"
 "http://www.w3.org/Graphics/SVG/1.1/DTD/svg11.dtd">
<!-- Generated by graphviz version 2.40.1 (20161225.0304)
 -->
<!-- Title: dependencies Pages: 1 -->
<svg width="813pt" height="211pt"
 viewBox="0.00 0.00 813.00 211.00" xmlns="http://www.w3.org/2000/svg" xmlns:xlink="http://www.w3.org/1999/xlink">
<g id="graph0" class="graph" transform="scale(1 1) rotate(0) translate(4 207)">
<title>dependencies</title>
<polygon fill="#ffffff" stroke="transparent" points="-4,4 -4,-207 809,-207 809,4 -4,4"/>
<text text-anchor="start" x="381.5091" y="-42.4" font-family="sans-serif" font-weight="bold" font-size="14.00" fill="#000000">Legend</text>
<polygon fill="#ffffb3" stroke="transparent" points="168.5,-10 168.5,-30 188.5,-30 188.5,-10 168.5,-10"/>
<text text-anchor="start" x="192.129" y="-15.4" font-family="sans-serif" font-size="14.00" fill="#000000"> &#160;Declarations</text>
<polygon fill="#8dd3c7" stroke="transparent" points="281.5,-10 281.5,-30 301.5,-30 301.5,-10 281.5,-10"/>
<text text-anchor="start" x="305.2251" y="-15.4" font-family="sans-serif" font-size="14.00" fill="#000000"> &#160;Module</text>
<polygon fill="#80b1d3" stroke="transparent" points="367.5,-10 367.5,-30 387.5,-30 387.5,-10 367.5,-10"/>
<text text-anchor="start" x="391.2812" y="-15.4" font-family="sans-serif" font-size="14.00" fill="#000000"> &#160;Bootstrap</text>
<polygon fill="#fdb462" stroke="transparent" points="464.5,-10 464.5,-30 484.5,-30 484.5,-10 464.5,-10"/>
<text text-anchor="start" x="488.1732" y="-15.4" font-family="sans-serif" font-size="14.00" fill="#000000"> &#160;Providers</text>
<polygon fill="#fb8072" stroke="transparent" points="560.5,-10 560.5,-30 580.5,-30 580.5,-10 560.5,-10"/>
<text text-anchor="start" x="584.2258" y="-15.4" font-family="sans-serif" font-size="14.00" fill="#000000"> &#160;Exports</text>
<g id="clust1" class="cluster">
<title>cluster_LogsModule</title>
<polygon fill="none" stroke="#000000" stroke-dasharray="1,5" points="8,-70 8,-195 797,-195 797,-70 8,-70"/>
</g>
<g id="clust2" class="cluster">
<title>cluster_LogsModule_declarations</title>
<polygon fill="none" stroke="#000000" points="310,-78 310,-130 789,-130 789,-78 310,-78"/>
</g>
<g id="clust6" class="cluster">
<title>cluster_LogsModule_imports</title>
<polygon fill="none" stroke="#000000" points="16,-78 16,-130 302,-130 302,-78 16,-78"/>
</g>
<!-- AccessLogComponent -->
<g id="node1" class="node">
<title>AccessLogComponent</title>
<polygon fill="#ffffb3" stroke="#000000" points="780.5254,-122 637.4746,-122 637.4746,-86 780.5254,-86 780.5254,-122"/>
<text text-anchor="middle" x="709" y="-99.8" font-family="Times,serif" font-size="14.00" fill="#000000">AccessLogComponent</text>
</g>
<!-- LogsModule -->
<g id="node4" class="node">
<title>LogsModule</title>
<polygon fill="#8dd3c7" stroke="#000000" points="429.5482,-187 426.5482,-191 405.5482,-191 402.5482,-187 342.4518,-187 342.4518,-151 429.5482,-151 429.5482,-187"/>
<text text-anchor="middle" x="386" y="-164.8" font-family="Times,serif" font-size="14.00" fill="#000000">LogsModule</text>
</g>
<!-- AccessLogComponent&#45;&gt;LogsModule -->
<g id="edge1" class="edge">
<title>AccessLogComponent&#45;&gt;LogsModule</title>
<path fill="none" stroke="#000000" d="M709,-122.2843C709,-143.3211 709,-175 709,-175 709,-175 439.5612,-175 439.5612,-175"/>
<polygon fill="#000000" stroke="#000000" points="439.5613,-171.5001 429.5612,-175 439.5612,-178.5001 439.5613,-171.5001"/>
</g>
<!-- ActionsLogComponent -->
<g id="node2" class="node">
<title>ActionsLogComponent</title>
<polygon fill="#ffffb3" stroke="#000000" points="619.9326,-122 472.0674,-122 472.0674,-86 619.9326,-86 619.9326,-122"/>
<text text-anchor="middle" x="546" y="-99.8" font-family="Times,serif" font-size="14.00" fill="#000000">ActionsLogComponent</text>
</g>
<!-- ActionsLogComponent&#45;&gt;LogsModule -->
<g id="edge2" class="edge">
<title>ActionsLogComponent&#45;&gt;LogsModule</title>
<path fill="none" stroke="#000000" d="M546,-122.0225C546,-139.3734 546,-163 546,-163 546,-163 439.7207,-163 439.7207,-163"/>
<polygon fill="#000000" stroke="#000000" points="439.7207,-159.5001 429.7207,-163 439.7207,-166.5001 439.7207,-159.5001"/>
</g>
<!-- LogsRootComponent -->
<g id="node3" class="node">
<title>LogsRootComponent</title>
<polygon fill="#ffffb3" stroke="#000000" points="454.0575,-122 317.9425,-122 317.9425,-86 454.0575,-86 454.0575,-122"/>
<text text-anchor="middle" x="386" y="-99.8" font-family="Times,serif" font-size="14.00" fill="#000000">LogsRootComponent</text>
</g>
<!-- LogsRootComponent&#45;&gt;LogsModule -->
<g id="edge3" class="edge">
<title>LogsRootComponent&#45;&gt;LogsModule</title>
<path fill="none" stroke="#000000" d="M386,-122.1061C386,-122.1061 386,-140.991 386,-140.991"/>
<polygon fill="#000000" stroke="#000000" points="382.5001,-140.9909 386,-150.991 389.5001,-140.991 382.5001,-140.9909"/>
</g>
<!-- AntDesignModule -->
<g id="node5" class="node">
<title>AntDesignModule</title>
<polygon fill="#8dd3c7" stroke="#000000" points="294.2036,-122 291.2036,-126 270.2036,-126 267.2036,-122 173.7964,-122 173.7964,-86 294.2036,-86 294.2036,-122"/>
<text text-anchor="middle" x="234" y="-99.8" font-family="Times,serif" font-size="14.00" fill="#000000">AntDesignModule</text>
</g>
<!-- AntDesignModule&#45;&gt;LogsModule -->
<g id="edge4" class="edge">
<title>AntDesignModule&#45;&gt;LogsModule</title>
<path fill="none" stroke="#000000" d="M234,-122.0225C234,-139.3734 234,-163 234,-163 234,-163 332.4429,-163 332.4429,-163"/>
<polygon fill="#000000" stroke="#000000" points="332.4429,-166.5001 342.4429,-163 332.4429,-159.5001 332.4429,-166.5001"/>
</g>
<!-- LogsRoutingModule -->
<g id="node6" class="node">
<title>LogsRoutingModule</title>
<polygon fill="#8dd3c7" stroke="#000000" points="156.1652,-122 153.1652,-126 132.1652,-126 129.1652,-122 23.8348,-122 23.8348,-86 156.1652,-86 156.1652,-122"/>
<text text-anchor="middle" x="90" y="-99.8" font-family="Times,serif" font-size="14.00" fill="#000000">LogsRoutingModule</text>
</g>
<!-- LogsRoutingModule&#45;&gt;LogsModule -->
<g id="edge5" class="edge">
<title>LogsRoutingModule&#45;&gt;LogsModule</title>
<path fill="none" stroke="#000000" d="M90,-122.2843C90,-143.3211 90,-175 90,-175 90,-175 332.3242,-175 332.3242,-175"/>
<polygon fill="#000000" stroke="#000000" points="332.3242,-178.5001 342.3242,-175 332.3241,-171.5001 332.3242,-178.5001"/>
</g>
</g>
</svg>
